# Blender v2.74 (sub 0) OBJ File: 'walls.blend'
# www.blender.org
mtllib Walls.mtl
o Mesh1_Grey_Wall_Model.001
v -1.000000 1.100000 1.500000
v -1.000000 1.100000 1.000000
v -1.100000 1.100000 1.000000
v -1.400000 1.100000 1.000000
v -1.500000 1.100000 1.000000
v -1.500000 1.100000 1.500000
v -1.000000 -1.100000 1.500000
v -1.000000 -1.100000 1.000000
v -1.500000 -1.100000 1.000000
v -1.400000 -1.100000 1.000000
v -1.100000 -1.100000 1.000000
v -1.500000 -1.100000 1.500000
v -1.400000 -1.100000 -1.000000
v -1.400000 1.100000 -1.000000
v -1.100000 -1.100000 -1.000000
v -1.000000 -1.100000 -1.000000
v -1.500000 -1.100000 -1.000000
v -1.500000 -1.100000 -1.500000
v -1.000000 -1.100000 -1.500000
v -1.000000 1.100000 -1.000000
v -1.100000 1.100000 -1.000000
v -1.000000 1.100000 -1.500000
v -1.500000 1.100000 -1.500000
v -1.500000 1.100000 -1.000000
v 1.000000 1.100000 1.100000
v 1.000000 1.100000 1.400000
v 1.000000 -1.100000 1.400000
v 1.000000 -1.100000 1.100000
v -1.000000 -1.100000 1.400000
v -1.000000 1.100000 1.400000
v -1.000000 -1.100000 1.100000
v -1.000000 1.100000 1.100000
v 1.500000 1.100000 1.500000
v 1.500000 1.100000 1.000000
v 1.400000 1.100000 1.000000
v 1.100000 1.100000 1.000000
v 1.000000 1.100000 1.000000
v 1.000000 1.100000 1.500000
v 1.500000 -1.100000 1.500000
v 1.500000 -1.100000 1.000000
v 1.000000 -1.100000 1.000000
v 1.100000 -1.100000 1.000000
v 1.400000 -1.100000 1.000000
v 1.000000 -1.100000 1.500000
v 1.100000 -1.100000 -1.000000
v 1.100000 1.100000 -1.000000
v 1.400000 -1.100000 -1.000000
v 1.500000 -1.100000 -1.000000
v 1.000000 -1.100000 -1.000000
v 1.000000 -1.100000 -1.500000
v 1.500000 -1.100000 -1.500000
v 1.500000 1.100000 -1.000000
v 1.400000 1.100000 -1.000000
v 1.500000 1.100000 -1.500000
v 1.000000 1.100000 -1.500000
v 1.000000 1.100000 -1.000000
v 1.000000 1.100000 -1.400000
v 1.000000 1.100000 -1.100000
v 1.000000 -1.100000 -1.100000
v 1.000000 -1.100000 -1.400000
v -1.000000 -1.100000 -1.100000
v -1.000000 1.100000 -1.100000
v -1.000000 -1.100000 -1.400000
v -1.000000 1.100000 -1.400000
vt 0.227273 1.000000
vt 0.045454 0.227273
vt -0.227273 0.000000
vt -0.181818 0.227273
vt -1.136360 0.000000
vt -0.227273 1.000000
vt -1.136360 1.000000
vt -0.045454 0.227273
vt -0.045454 1.136360
vt -0.181818 1.136360
vt 0.181818 1.136360
vt 0.045454 1.136360
vt 0.181818 0.227273
vt 0.227273 0.000000
vt 1.136360 0.000000
vt 1.136360 1.000000
vt 0.227273 0.227273
vt 0.000000 0.227273
vt 0.000000 0.000000
vt 0.000000 1.000000
vt -0.227273 0.227273
vt -0.045454 1.000000
vt -0.045454 0.000000
vt -0.227273 1.136360
vt 0.000000 1.136360
vt 0.000000 1.363640
vt -0.227273 1.363640
vt 0.181818 1.000000
vt 0.181818 0.000000
vt 1.363640 1.000000
vt 1.363640 0.000000
vt 0.227273 1.136360
vt 0.227273 1.363640
vt -1.363640 0.000000
vt -1.363640 1.000000
vt 0.045454 0.000000
vt 0.045454 1.000000
vt -0.181818 0.000000
vt -0.181818 1.000000
vn 1.000000 -0.000000 0.000000
vn -1.000000 0.000000 0.000000
vn 0.000000 -1.000000 -0.000000
vn 0.000000 1.000000 0.000000
vn 0.000000 -0.000000 1.000000
vn -0.707100 -0.707100 0.000000
vn -0.707100 0.707100 0.000000
vn -0.000000 0.000000 -1.000000
usemtl Dark_Stone
s off
f 28/1/1 25/2/1 26/3/1 27/4/1
f 60/1/1 57/2/1 58/3/1 59/4/1
s 1
f 13/5/2 10/3/2 4/6/2 14/7/2
f 10/8/3 13/9/3 15/10/3 11/4/3
f 21/11/4 14/12/4 4/2/4 3/13/4
f 11/14/1 15/15/1 21/16/1 3/1/1
f 29/5/5 27/3/5 26/6/5 30/7/5
f 27/8/3 29/9/6 31/10/6 28/4/3
f 32/11/7 30/12/7 26/2/4 25/13/4
f 28/14/8 31/15/8 32/16/8 25/1/8
f 32/15/7 31/9/6 29/7/6 30/11/7
f 45/5/2 42/3/2 36/6/2 46/7/2
f 42/8/3 45/9/3 47/10/3 43/4/3
f 53/11/4 46/12/4 36/2/4 35/13/4
f 43/14/1 47/15/1 53/16/1 35/1/1
f 61/5/5 59/3/5 58/6/5 62/7/5
f 59/8/3 61/9/6 63/10/6 60/4/3
f 64/11/7 62/12/7 58/2/4 57/13/4
f 60/14/8 63/15/8 64/16/8 57/1/8
usemtl Light_Stone
f 1/14/4 2/17/4 3/13/4 4/2/4 5/18/4 6/19/4
f 7/19/1 8/14/1 2/1/1 1/20/1
f 9/18/3 10/8/3 11/4/3 8/21/3 7/3/3 12/19/3
f 9/19/8 5/20/8 4/22/8 10/23/8
f 6/20/2 5/6/2 9/3/2 12/19/2
f 12/19/5 7/14/5 1/1/5 6/20/5
f 16/24/3 15/10/3 13/9/3 17/25/3 18/26/3 19/27/3
f 16/14/5 20/1/5 21/28/5 15/29/5
f 22/30/1 20/16/1 16/15/1 19/31/1
f 23/26/4 24/25/4 14/12/4 21/11/4 20/32/4 22/33/4
f 18/34/2 17/5/2 24/7/2 23/35/2
f 24/20/5 17/19/5 13/36/5 14/37/5
f 19/3/8 18/19/8 23/20/8 22/6/8
f 2/6/8 8/3/8 11/38/8 3/39/8
f 33/14/4 34/17/4 35/13/4 36/2/4 37/18/4 38/19/4
f 39/19/1 40/14/1 34/1/1 33/20/1
f 41/18/3 42/8/3 43/4/3 40/21/3 39/3/3 44/19/3
f 41/19/8 37/20/8 36/22/8 42/23/8
f 38/20/2 37/6/2 41/3/2 44/19/2
f 44/19/5 39/14/5 33/1/5 38/20/5
f 48/24/3 47/10/3 45/9/3 49/25/3 50/26/3 51/27/3
f 48/14/5 52/1/5 53/28/5 47/29/5
f 54/30/1 52/16/1 48/15/1 51/31/1
f 55/26/4 56/25/4 46/12/4 53/11/4 52/32/4 54/33/4
f 50/34/2 49/5/2 56/7/2 55/35/2
f 56/20/5 49/19/5 45/36/5 46/37/5
f 51/3/8 50/19/8 55/20/8 54/6/8
f 34/6/8 40/3/8 43/38/8 35/39/8
f 64/15/7 63/9/6 61/7/6 62/11/7
