# Blender v2.74 (sub 0) OBJ File: 'walls.blend'
# www.blender.org
mtllib Walls_Door_2.mtl
o Mesh1_Grey_Wall_Model.001
v 1.000000 1.099529 1.100000
v 1.000000 1.099529 1.400000
v 1.000000 -1.100471 1.400000
v 1.000000 -1.100471 1.100000
v -1.000000 -1.100471 1.400000
v -0.611140 -1.100471 1.400000
v -0.611140 0.204009 1.400000
v -0.450980 0.590669 1.400000
v -0.432140 0.636149 1.400000
v 0.000000 0.815149 1.400000
v 0.432140 0.636149 1.400000
v 0.450980 0.590669 1.400000
v 0.611141 0.204009 1.400000
v 0.611141 -1.100471 1.400000
v -1.000000 1.099529 1.400000
v -1.000000 -1.100471 1.100000
v -0.611140 -1.100471 1.100000
v 0.611141 -1.100471 1.100000
v 0.611141 0.204009 1.100000
v 0.450980 0.590669 1.100000
v 0.432140 0.636149 1.100000
v 0.000000 0.815149 1.100000
v -0.432140 0.636149 1.100000
v -0.450980 0.590669 1.100000
v -0.611140 0.204009 1.100000
v -1.000000 1.099529 1.100000
v -1.000000 1.100856 1.500000
v -1.000000 1.100857 1.000000
v -1.100000 1.100857 1.000000
v -1.400000 1.100857 1.000000
v -1.500000 1.100857 1.000000
v -1.500000 1.100856 1.500000
v -1.000000 -1.099144 1.500000
v -1.000000 -1.099144 1.000000
v -1.500000 -1.099144 1.000000
v -1.400000 -1.099144 1.000000
v -1.100000 -1.099144 1.000000
v -1.500000 -1.099144 1.500000
v -1.400000 -1.099143 -1.000000
v -1.400000 -1.099143 -0.611140
v -1.400000 0.205337 -0.611140
v -1.400000 0.591997 -0.450980
v -1.400000 0.637477 -0.432140
v -1.400000 0.816477 0.000000
v -1.400000 0.637477 0.432140
v -1.400000 0.591997 0.450980
v -1.400000 0.205336 0.611141
v -1.400000 -1.099144 0.611141
v -1.400000 1.100857 -1.000000
v -1.100000 -1.099143 -1.000000
v -1.100000 -1.099143 -0.611140
v -1.100000 -1.099144 0.611141
v -1.100000 0.205336 0.611141
v -1.100000 0.591997 0.450980
v -1.100000 0.637477 0.432140
v -1.100000 0.816477 0.000000
v -1.100000 0.637477 -0.432140
v -1.100000 0.591997 -0.450980
v -1.100000 0.205337 -0.611140
v -1.100000 1.100857 -1.000000
v -1.000000 -1.099143 -1.000000
v -1.000000 1.100857 -1.000000
v -1.000000 1.100857 -1.500000
v -1.000000 -1.099143 -1.500000
v -1.500000 1.100857 -1.500000
v -1.500000 1.100857 -1.000000
v -1.500000 -1.099143 -1.500000
v -1.500000 -1.099143 -1.000000
v 1.500000 1.100000 1.500000
v 1.500000 1.100000 1.000000
v 1.400000 1.100000 1.000000
v 1.100000 1.100000 1.000000
v 1.000000 1.100000 1.000000
v 1.000000 1.100000 1.500000
v 1.500000 -1.100000 1.500000
v 1.500000 -1.100000 1.000000
v 1.000000 -1.100000 1.000000
v 1.100000 -1.100000 1.000000
v 1.400000 -1.100000 1.000000
v 1.000000 -1.100000 1.500000
v 1.100000 -1.100000 -1.000000
v 1.100000 1.100000 -1.000000
v 1.400000 -1.100000 -1.000000
v 1.500000 -1.100000 -1.000000
v 1.000000 -1.100000 -1.000000
v 1.000000 -1.100000 -1.500000
v 1.500000 -1.100000 -1.500000
v 1.500000 1.100000 -1.000000
v 1.400000 1.100000 -1.000000
v 1.500000 1.100000 -1.500000
v 1.000000 1.100000 -1.500000
v 1.000000 1.100000 -1.000000
v 1.000000 1.100000 -1.400000
v 1.000000 1.100000 -1.100000
v 1.000000 -1.100000 -1.100000
v 1.000000 -1.100000 -1.400000
v -1.000000 -1.100000 -1.100000
v -1.000000 1.100000 -1.100000
v -1.000000 -1.100000 -1.400000
v -1.000000 1.100000 -1.400000
vt 0.227273 1.000000
vt 0.045454 0.227273
vt -0.227273 0.000000
vt -0.181818 0.227273
vt -1.136360 0.000000
vt -0.959609 -0.000000
vt -0.959609 0.592947
vt -0.886810 0.768700
vt -0.878246 0.789375
vt -0.681818 0.870738
vt -0.485390 0.789375
vt -0.476826 0.768700
vt -0.404027 0.592947
vt -0.404027 -0.000000
vt -0.227273 1.000000
vt -1.136360 1.000000
vt -0.181818 1.136360
vt -0.181818 0.959609
vt -0.045454 0.959609
vt -0.045454 1.136360
vt 0.227273 0.000000
vt 0.404027 -0.000000
vt 0.404027 0.592947
vt 0.476826 0.768700
vt 0.485390 0.789375
vt 0.681818 0.870738
vt 0.878246 0.789375
vt 0.886810 0.768700
vt 0.959609 0.592947
vt 0.959609 -0.000000
vt 1.136360 0.000000
vt 1.136360 1.000000
vt -0.045454 0.227273
vt -0.045454 0.404027
vt -0.181818 0.404027
vt -0.181818 0.592947
vt -0.181818 -0.000000
vt -0.045454 -0.000000
vt -0.045454 0.592947
vt -0.181818 0.892660
vt -0.181818 0.702426
vt -0.045454 0.702426
vt -0.045454 0.892660
vt -0.181818 0.915038
vt -0.045454 0.915038
vt -0.181818 0.963135
vt -0.181818 0.750523
vt -0.045454 0.750523
vt -0.045454 0.963135
vt 0.181818 -0.509313
vt 0.181818 -0.296701
vt 0.045454 -0.296701
vt 0.045454 -0.509313
vt 0.181818 0.370819
vt 0.181818 0.393197
vt 0.045454 0.393197
vt 0.045454 0.370819
vt 0.181818 0.180585
vt 0.045454 0.180585
vt 0.181818 -0.000000
vt 0.181818 0.592947
vt 0.045454 0.592947
vt 0.045454 -0.000000
vt 0.181818 1.136360
vt 0.045454 1.136360
vt 0.181818 0.227273
vt 0.227273 0.227273
vt 0.000000 0.227273
vt 0.000000 0.000000
vt 0.000000 1.000000
vt -0.227273 0.227273
vt -0.045454 1.000000
vt 0.181818 1.000000
vt 1.363640 1.000000
vt 1.363640 0.000000
vt 0.000000 1.363640
vt 0.000000 1.136360
vt 0.227273 1.136360
vt 0.227273 1.363640
vt -1.363640 0.000000
vt -1.363640 1.000000
vt -0.227273 1.136360
vt -0.227273 1.363640
vt 0.045454 1.000000
vt -0.181818 1.000000
vn 1.000000 -0.000000 0.000000
vn 0.000000 -0.000000 1.000000
vn 0.000000 -1.000000 0.000000
vn -0.000000 0.000000 -1.000000
vn -1.000000 0.000000 0.000000
vn -0.923900 -0.382700 -0.000000
vn -0.382700 -0.923900 0.000000
vn 0.382700 -0.923900 -0.000000
vn 0.923900 -0.382700 -0.000000
vn 0.000000 1.000000 0.000000
vn 0.000000 -0.382700 -0.923900
vn 0.000000 -0.923900 -0.382700
vn 0.000000 -0.923900 0.382700
vn 0.000000 -0.382700 0.923900
vn -0.707100 -0.707100 0.000000
vn -0.707100 0.707100 0.000000
usemtl Dark_Stone
s off
f 96/1/1 93/2/1 94/3/1 95/4/1
s 1
f 5/5/2 6/6/2 7/7/2 8/8/2 9/9/2 10/10/2 11/11/2 12/12/2 13/13/2 14/14/2 3/3/2 2/15/2 15/16/2
f 16/17/3 17/18/3 6/19/3 5/20/3
f 4/21/4 18/22/4 19/23/4 20/24/4 21/25/4 22/26/4 23/27/4 24/28/4 25/29/4 17/30/4 16/31/4 26/32/4 1/1/4
f 3/33/3 14/34/3 18/35/3 4/4/3
f 19/36/5 18/37/5 14/38/5 13/39/5
f 20/40/6 19/41/6 13/42/6 12/43/6
f 21/44/6 20/40/6 12/43/6 11/45/6
f 22/46/7 21/47/7 11/48/7 10/49/7
f 23/50/8 22/51/8 10/52/8 9/53/8
f 24/54/9 23/55/9 9/56/9 8/57/9
f 25/58/9 24/54/9 8/57/9 7/59/9
f 17/60/1 25/61/1 7/62/1 6/63/1
f 26/64/10 15/65/10 2/2/10 1/66/10
f 39/5/5 40/6/5 41/7/5 42/8/5 43/9/5 44/10/5 45/11/5 46/12/5 47/13/5 48/14/5 36/3/5 30/15/5 49/16/5
f 50/17/3 51/18/3 40/19/3 39/20/3
f 37/21/1 52/22/1 53/23/1 54/24/1 55/25/1 56/26/1 57/27/1 58/28/1 59/29/1 51/30/1 50/31/1 60/32/1 29/1/1
f 36/33/3 48/34/3 52/35/3 37/4/3
f 53/36/4 52/37/4 48/38/4 47/39/4
f 54/40/11 53/41/11 47/42/11 46/43/11
f 55/44/11 54/40/11 46/43/11 45/45/11
f 56/46/12 55/47/12 45/48/12 44/49/12
f 57/50/13 56/51/13 44/52/13 43/53/13
f 58/54/14 57/55/14 43/56/14 42/57/14
f 59/58/14 58/54/14 42/57/14 41/59/14
f 51/60/2 59/61/2 41/62/2 40/63/2
f 60/64/10 49/65/10 30/2/10 29/66/10
f 81/5/5 78/3/5 72/15/5 82/16/5
f 78/33/3 81/20/3 83/17/3 79/4/3
f 89/64/10 82/65/10 72/2/10 71/66/10
f 79/21/1 83/31/1 89/32/1 71/1/1
f 97/5/2 95/3/2 94/15/2 98/16/2
f 95/33/3 97/20/15 99/17/15 96/4/3
f 100/64/16 98/65/16 94/2/10 93/66/10
f 96/21/4 99/31/4 100/32/4 93/1/4
usemtl Light_Stone
f 27/21/10 28/67/10 29/66/10 30/2/10 31/68/10 32/69/10
f 33/69/1 34/21/1 28/1/1 27/70/1
f 35/68/3 36/33/3 37/4/3 34/71/3 33/3/3 38/69/3
f 35/69/4 31/70/4 30/72/4 36/38/4
f 32/70/5 31/15/5 35/3/5 38/69/5
f 38/69/2 33/21/2 27/1/2 32/70/2
f 61/21/2 62/1/2 60/73/2 50/60/2
f 63/74/1 62/32/1 61/31/1 64/75/1
f 65/76/10 66/77/10 49/65/10 60/64/10 62/78/10 63/79/10
f 67/80/5 68/5/5 66/16/5 65/81/5
f 61/82/3 50/17/3 39/20/3 68/77/3 67/76/3 64/83/3
f 66/70/2 68/69/2 39/63/2 49/84/2
f 64/3/4 67/69/4 65/70/4 63/15/4
f 28/15/4 34/3/4 37/37/4 29/85/4
f 69/21/10 70/67/10 71/66/10 72/2/10 73/68/10 74/69/10
f 75/69/1 76/21/1 70/1/1 69/70/1
f 77/68/3 78/33/3 79/4/3 76/71/3 75/3/3 80/69/3
f 77/69/4 73/70/4 72/72/4 78/38/4
f 74/70/5 73/15/5 77/3/5 80/69/5
f 80/69/2 75/21/2 69/1/2 74/70/2
f 84/82/3 83/17/3 81/20/3 85/77/3 86/76/3 87/83/3
f 84/21/2 88/1/2 89/73/2 83/60/2
f 90/74/1 88/32/1 84/31/1 87/75/1
f 91/76/10 92/77/10 82/65/10 89/64/10 88/78/10 90/79/10
f 86/80/5 85/5/5 92/16/5 91/81/5
f 92/70/2 85/69/2 81/63/2 82/84/2
f 87/3/4 86/69/4 91/70/4 90/15/4
f 70/15/4 76/3/4 79/37/4 71/85/4
f 100/31/16 99/20/15 97/16/15 98/64/16
